<svg xmlns="http://www.w3.org/2000/svg" viewBox="0 0 301.16 370.48"><defs><style>.cls-1{fill:#010101;}</style></defs><title>Asset 2</title><g id="Layer_2" data-name="Layer 2"><g id="Layer_1-2" data-name="Layer 1"><path class="cls-1" d="M212.75,0c6.3,3.14,8.16,8.22,8.14,15.17-.21,60.38-.12,120.77-.12,181.16,0,9.17,2.83,12,12.07,12,18.44,0,36.88.05,55.32,0,5.48,0,9.61,2,11.95,7,2.18,4.66,1,9.28-3.45,13.69Q228.16,297.52,159.6,366c-6,6-12.17,5.95-18.24-.11Q72.94,297.52,4.53,229.14c-3.95-3.94-5.78-8.36-3.6-13.67s6.56-7.21,12.16-7.18c18.8.09,37.6,0,56.41,0,8.11,0,11-2.91,11-11.12q0-91.11-.07-182.24c0-7,2-12.15,8.65-15Z"/></g></g></svg>