<svg xmlns="http://www.w3.org/2000/svg" viewBox="0 0 311.14 380.52"><defs><style>.cls-1{fill:#010101;}</style></defs><title>Asset 4</title><g id="Layer_2" data-name="Layer 2"><g id="Layer_1-2" data-name="Layer 1"><path class="cls-1" d="M155.56,380.52c-4.34,0-8.68-2-12.74-6.09q-24.28-24.26-48.55-48.53Q50.14,281.79,6,237.68c-7.36-7.35-6.61-14.45-4.69-19.11S7.7,208.29,18,208.29h.13c14.27.07,28.78.05,42.82,0H74.49c5.31,0,6-.69,6-6.12V163.38c0-47,0-95.61-.08-143.41,0-9.83,3.81-16.23,11.71-19.58L93,0H218.91L220,.52c9.82,4.9,10.93,13.57,10.91,19.66-.16,46.7-.15,94.19-.13,140.11q0,20.52,0,41c0,6.4.59,7,7.07,7h14.85c13.26,0,27,0,40.45,0,9.83,0,14.38,5.35,16.5,9.88,1.77,3.79,3.55,11.35-4.44,19.34q-68.52,68.53-137.06,137C164.15,378.53,159.86,380.52,155.56,380.52ZM18,218.29c-5,0-6.55,2-7.42,4.09s-1.17,4.56,2.5,8.22q44.18,44.1,88.29,88.23l48.54,48.53c4.12,4.11,7.15,4.14,11.18.12q68.55-68.5,137.06-137c4.23-4.23,3-6.9,2.45-8-1-2.14-2.58-4.12-7.31-4.12h-.08c-13.51.06-27.23.05-40.51,0H237.83c-12,0-17.07-5.08-17.07-17q0-20.52,0-41c0-45.93,0-93.42.13-140.14,0-6-1.58-8.48-4.4-10.15H95.14c-3,1.49-4.76,3.88-4.74,10,.11,47.81.09,96.42.08,143.43V202.2c0,11-5.08,16.11-16,16.12H60.93c-14,0-28.58,0-42.87,0Z"/><path class="cls-1" d="M155.56,380.52c-4.34,0-8.68-2-12.74-6.09q-24.28-24.26-48.55-48.53Q50.14,281.79,6,237.68c-7.36-7.35-6.61-14.45-4.69-19.11S7.7,208.29,18,208.29h.13c14.27.07,28.78.05,42.82,0H74.49c5.31,0,6-.69,6-6.12V163.38c0-47,0-95.61-.08-143.41,0-9.83,3.81-16.23,11.71-19.58L93,0H218.91L220,.52c9.82,4.9,10.93,13.57,10.91,19.66-.16,46.7-.15,94.19-.13,140.11q0,20.52,0,41c0,6.4.59,7,7.07,7h14.85c13.26,0,27,0,40.45,0,9.83,0,14.38,5.35,16.5,9.88,1.77,3.79,3.55,11.35-4.44,19.34q-68.52,68.53-137.06,137C164.15,378.53,159.86,380.52,155.56,380.52ZM18,218.29c-5,0-6.55,2-7.42,4.09s-1.17,4.56,2.5,8.22q44.18,44.1,88.29,88.23l48.54,48.53c4.12,4.11,7.15,4.14,11.18.12q68.55-68.5,137.06-137c4.23-4.23,3-6.9,2.45-8-1-2.14-2.58-4.12-7.31-4.12h-.08c-13.51.06-27.23.05-40.51,0H237.83c-12,0-17.07-5.08-17.07-17q0-20.52,0-41c0-45.93,0-93.42.13-140.14,0-6-1.58-8.48-4.4-10.15H95.14c-3,1.49-4.76,3.88-4.74,10,.11,47.81.09,96.42.08,143.43V202.2c0,11-5.08,16.11-16,16.12H60.93c-14,0-28.58,0-42.87,0Z"/></g></g></svg>