<svg xmlns="http://www.w3.org/2000/svg" viewBox="0 0 317.98 363.05"><defs><style>.cls-1{fill:#010101;}</style></defs><title>Asset 1</title><g id="Layer_2" data-name="Layer 2"><g id="Layer_1-2" data-name="Layer 1"><path class="cls-1" d="M161.11,0a41.77,41.77,0,0,1,7.14,6.2L313.86,151.6c2.39,2.38,4.71,4.8,4,8.54-.83,4.29-4,6.42-9.24,6.43q-34.62,0-69.25,0c-3,0-5.93.22-8.87-.06s-3.57.87-3.18,3.39a15,15,0,0,1,0,2.12q0,90.21,0,180.41c0,2.56.27,5.16-1.48,7.46-2,2.67-4.74,3.17-7.84,3.16q-46.87,0-93.76,0-11.9,0-23.79,0c-6.76,0-9.6-2.86-9.6-9.73q0-46.95,0-93.92c0-29.65-.06-59.31.09-89,0-3.37-1-3.93-4.08-3.91-25.69.12-51.37.06-77.06.07a11.06,11.06,0,0,1-6.15-1.27,7.32,7.32,0,0,1-2.55-10.14,18.89,18.89,0,0,1,3-3.5Q77.72,77.85,151.46,4.08c1.46-1.46,3.11-2.73,4.68-4.08Z"/></g></g></svg>