<svg xmlns="http://www.w3.org/2000/svg" viewBox="0 0 327.98 373.05"><defs><style>.cls-1{fill:#010101;}</style></defs><title>Asset 3</title><g id="Layer_2" data-name="Layer 2"><g id="Layer_1-2" data-name="Layer 1"><path class="cls-1" d="M223,373.05H223q-36.53,0-73.06,0H122c-5.52,0-11,0-16.56,0-9.55,0-14.6-5.1-14.6-14.72q0-34,0-67.95V244.12c0-22.16,0-45.06.09-67.61-17.82.08-35.91.07-53.41.07H14.71a15.66,15.66,0,0,1-8.72-2,12.35,12.35,0,0,1-4.2-17,23.88,23.88,0,0,1,3.69-4.46Q79.18,79.32,152.91,5.54c1.16-1.16,2.35-2.15,3.51-3.11l1.44-1.21L159.27,0h8.27l1.22.76a43,43,0,0,1,7.56,6.45l.46.46q72.79,72.71,145.61,145.39c2.47,2.46,6.6,6.59,5.36,13-1.29,6.66-6.44,10.47-14.14,10.48q-25.65,0-51.3,0H244.36c-.87,0-1.74,0-2.6,0-1.45,0-2.92.07-4.43,0,0,.13,0,.26,0,.39v28.86q0,75.78,0,151.55c0,.28,0,.56,0,.84,0,2.64.08,6.26-2.52,9.66C231.33,372.46,226.69,373.05,223,373.05Zm-52.4-10q26.19,0,52.36,0h0c2.71,0,3.3-.49,3.83-1.19s.49-1.51.47-3.46c0-.33,0-.65,0-1q0-75.76,0-151.53V177c0-.29,0-.58,0-.87s0-.37,0-.56c-.44-2.86.14-5.21,1.74-6.91s3.91-2.43,6.86-2.14a48.94,48.94,0,0,0,5.59.07c.94,0,1.88,0,2.82,0h17.95q25.65,0,51.29,0c3.87,0,4.13-1.32,4.33-2.37s-.18-1.64-2.61-4.07Q242.51,87.46,169.71,14.74l-.46-.46A43.61,43.61,0,0,0,164.56,10H163l-.15.12c-1,.85-2,1.66-2.82,2.49Q86.25,86.38,12.56,160.2a15,15,0,0,0-2.2,2.55,2.34,2.34,0,0,0,.9,3.31,6.56,6.56,0,0,0,3.51.52H37.51c17.8,0,36.2,0,54.3-.08,1.49,0,4.59,0,6.85,2.25,2,2,2.26,4.8,2.25,6.69-.12,22.89-.11,46.17-.09,68.68v46.24q0,34,0,67.94c0,4.11.6,4.72,4.61,4.73h65.18Z"/><path class="cls-1" d="M223,373.05H223q-36.53,0-73.06,0H122c-5.52,0-11,0-16.56,0-9.55,0-14.6-5.1-14.6-14.72q0-34,0-67.95V244.12c0-22.16,0-45.06.09-67.61-17.82.08-35.91.07-53.41.07H14.71a15.66,15.66,0,0,1-8.72-2,12.35,12.35,0,0,1-4.2-17,23.88,23.88,0,0,1,3.69-4.46Q79.18,79.32,152.91,5.54c1.16-1.16,2.35-2.15,3.51-3.11l1.44-1.21L159.27,0h8.27l1.22.76a43,43,0,0,1,7.56,6.45l.46.46q72.79,72.71,145.61,145.39c2.47,2.46,6.6,6.59,5.36,13-1.29,6.66-6.44,10.47-14.14,10.48q-25.65,0-51.3,0H244.36c-.87,0-1.74,0-2.6,0-1.45,0-2.92.07-4.43,0,0,.13,0,.26,0,.39v28.86q0,75.78,0,151.55c0,.28,0,.56,0,.84,0,2.64.08,6.26-2.52,9.66C231.33,372.46,226.69,373.05,223,373.05Zm-52.4-10q26.19,0,52.36,0h0c2.71,0,3.3-.49,3.83-1.19s.49-1.51.47-3.46c0-.33,0-.65,0-1q0-75.76,0-151.53V177c0-.29,0-.58,0-.87s0-.37,0-.56c-.44-2.86.14-5.21,1.74-6.91s3.91-2.43,6.86-2.14a48.94,48.94,0,0,0,5.59.07c.94,0,1.88,0,2.82,0h17.95q25.65,0,51.29,0c3.87,0,4.13-1.32,4.33-2.37s-.18-1.64-2.61-4.07Q242.51,87.46,169.71,14.74l-.46-.46A43.61,43.61,0,0,0,164.56,10H163l-.15.12c-1,.85-2,1.66-2.82,2.49Q86.25,86.38,12.56,160.2a15,15,0,0,0-2.2,2.55,2.34,2.34,0,0,0,.9,3.31,6.56,6.56,0,0,0,3.51.52H37.51c17.8,0,36.2,0,54.3-.08,1.49,0,4.59,0,6.85,2.25,2,2,2.26,4.8,2.25,6.69-.12,22.89-.11,46.17-.09,68.68v46.24q0,34,0,67.94c0,4.11.6,4.72,4.61,4.73h65.18Z"/></g></g></svg>